<svg id="Layer_1" data-name="Layer 1" xmlns="http://www.w3.org/2000/svg" viewBox="0 0 632.97 205.49"><defs><style>.cls-1{fill:#a4ddf0;}.cls-2{fill:#00a6b7;}.cls-3{fill:#5070b6;}.cls-4,.cls-8{fill:#3e5ba9;}.cls-5{fill:#fff;}.cls-6{fill:#45afe3;}.cls-7{fill:#8ba6d6;}.cls-8{font-size:168px;font-family:Proxima Nova;font-weight:700;letter-spacing:3px;}.cls-9{letter-spacing:23px;}</style></defs><title>HELPHEAT</title><polygon class="cls-1" points="29.72 89.12 29.72 197.55 174.85 197.55 174.85 89.12 196.96 89.12 102.3 11.59 8.45 89.23 29.72 89.12"/><rect class="cls-2" x="29.72" y="114.38" width="145.14" height="83.17"/><path class="cls-3" d="M103,57.81a62.34,62.34,0,0,1,62.89,61.56c0.65,35.34-26.75,63.45-61.92,64.1a62.66,62.66,0,0,1-64.25-61C38.61,85.16,69.44,56.93,103,57.81Zm10,48.54h0c0-9.07,0-18.14,0-27.21a13.9,13.9,0,0,0-.92-5.4A10.12,10.12,0,0,0,100.84,68c-5.27,1.19-8.38,4.76-8.4,10q-0.09,27.9,0,55.81a7,7,0,0,1-2.57,5.95,19.16,19.16,0,1,0,28.66,25c5.6-8.08,4.1-18.63-3.38-25.6a7.17,7.17,0,0,1-2.09-4.6C112.87,125.19,113,115.77,113,106.35Z"/><path class="cls-4" d="M103.46,183.48c60,0,65.5-68.77,61.49-54.81-2.49,8.68-119.84,17.78-123.45,0C36.15,102.28,36.46,183.48,103.46,183.48Z"/><path class="cls-5" d="M113,106.35c0,9.42-.1,18.84.1,28.25a7.17,7.17,0,0,0,2.09,4.6c7.49,7,9,17.52,3.38,25.6a19.16,19.16,0,1,1-28.66-25,7,7,0,0,0,2.57-5.95q-0.12-27.9,0-55.81c0-5.29,3.13-8.85,8.4-10A10.12,10.12,0,0,1,112,73.74a13.9,13.9,0,0,1,.92,5.4c0.09,9.07,0,18.14,0,27.21h0Zm-17.24,1.82c0,9.19-.07,18.39,0,27.58a6.71,6.71,0,0,1-2.85,6.14,15.61,15.61,0,1,0,19.37-.21,6,6,0,0,1-2.67-5.49q0.11-28.27,0-56.55c0-5.15-2.62-8.22-6.93-8.26s-7,3.07-7,8.17C95.71,89.08,95.74,98.63,95.74,108.17Z"/><path class="cls-6" d="M95.74,108.17c0-9.54,0-19.08,0-28.62,0-5.1,2.74-8.21,7-8.17s6.92,3.11,6.93,8.26q0,28.27,0,56.55a6,6,0,0,0,2.67,5.49,15.51,15.51,0,0,1,2,22.84,15.61,15.61,0,1,1-21.37-22.64,6.71,6.71,0,0,0,2.85-6.14C95.66,126.55,95.74,117.36,95.74,108.17Zm11.61,15c0-5.46.22-10.94-.14-16.38a6.9,6.9,0,0,0-3-4.55c-0.95-.62-3.47-0.15-4.33.75a7.9,7.9,0,0,0-1.84,5q-0.26,14.46,0,28.94c0,2.79-.53,4.53-3.11,6.17-6.27,4-7.55,13-3.08,18.72,5,6.44,13.83,7.4,19.64,2.13,6-5.43,6.89-14.71.57-19.21-4.92-3.5-4.78-7.46-4.71-12.12C107.39,129.43,107.36,126.29,107.35,123.15Z"/><path class="cls-5" d="M107.36,123.15c0,3.14,0,6.28,0,9.41-0.06,4.67-.21,8.62,4.71,12.12,6.32,4.5,5.42,13.78-.57,19.21-5.82,5.27-14.66,4.31-19.64-2.13C87.39,156,88.66,147,94.93,143c2.58-1.64,3.15-3.38,3.11-6.17q-0.23-14.47,0-28.94a7.9,7.9,0,0,1,1.84-5c0.86-.9,3.38-1.37,4.33-0.75a6.9,6.9,0,0,1,3,4.55C107.58,112.21,107.35,117.69,107.36,123.15Z"/><path class="cls-7" d="M129.08,84.95c5.55,3.53,11.94,9.14,12.35,16.19,0.38,6.4,10.38,6.44,10,0-0.64-10.88-8.49-19.23-17.3-24.82-5.45-3.46-10.47,5.19-5,8.63h0Z"/><text class="cls-8" transform="translate(162.46 197.72)">HELP<tspan class="cls-9" x="426.88" y="0">!</tspan></text></svg>